# xmcd
# Track frame offsets:
# 150
# 12655
# 26413
# 38523
# 50830
# 62748
# 75598
# 86988
# 100085
# 111625
# 125125
# 138138
# 148598
# 161863
# 172690
# 184245
# 196253
# 210353
# 220675
# 234435
# 247720
# 261608
# 275300
# 287168
#
# Disc length: 3956 seconds
# Revision: 0
# Processed by: cddbd v1.4PL0 Copyright (c) Steve Scherf et al.
# Submitted via: VisiTrax 2.9.5.181 - For more info visit www.synapsa.com
#
DISCID=5d0f7218
DTITLE=Various Blues Artists - A Modern Blues Anthology. Ain't Times Hard - D
DTITLE=isc 1 Mystery Train
DYEAR=1994
DGENRE=
TTITLE0=Elmore James - I Believe (Dust My Broom)
TTITLE1=Howlin' Wolf - Well That's All Right
TTITLE2=Eddie Boyd - Five Long Years
TTITLE3=Willie Nix - Seems Like A Million Years
TTITLE4=Joe Hill Louis - We All Gotta Go Sometime
TTITLE5=J.B.Lenoir - Mojo Boogie
TTITLE6=Johnny Shines - Evening Sun
TTITLE7=Johnny Shines - Brutal Hearted Woman
TTITLE8=Little Hudson - I'm Looking For A Woman
TTITLE9=Walter Horton - Easy
TTITLE10=Rufus Thomas - Bear Cat
TTITLE11=Jimmy De Berry - Take A Little Chance
TTITLE12=Junior Parker - Feelin' Good
TTITLE13=Junior Parker - Mystery Train
TTITLE14=Doctor Ross - The Boogie Disease
TTITLE15=Billy Love - Hart's Braed Boogie
TTITLE16=Floyd Jones - Ain't Times Hard
TTITLE17=J.B Hutto - Combination Boogie
TTITLE18=James Cotton - Cotton Crop Blues
TTITLE19=Pat Hare - I'm Gonna Murder My Baby
TTITLE20=Jimmy Reed - You Don't Have To Go
TTITLE21=Eddie Taylor - Bad Boy
TTITLE22=Robert Lockwood - Aw Baby
TTITLE23=Willie Johnson - So Long Baby Goodbye
EXTD=Charly Blues CD DIG 3\nBoxed Set Of Four Disc's
EXTT0=
EXTT1=
EXTT2=
EXTT3=
EXTT4=
EXTT5=
EXTT6=
EXTT7=
EXTT8=
EXTT9=
EXTT10=
EXTT11=
EXTT12=
EXTT13=
EXTT14=
EXTT15=
EXTT16=
EXTT17=
EXTT18=
EXTT19=
EXTT20=
EXTT21=
EXTT22=
EXTT23=
PLAYORDER=
